# xmcd CD database file
# Generated: Wed Sep 26 19:34:27 2001 by KSCD
# 
# Track frame offsets:
#       150
#       19323
#       32696
#       51273
#       69218
#       88898
#       101610
#       115522
#       128162
#       139602
#       148667
#       164515
#       177772
#       193813
#       209640
#       222895
#       238611
#       257069
#       272335
#       283182
#       295875
#       312094
#       322595
#       341115
#
# Disc length: 4779 seconds
#
# Revision: 2
# Processed by: cddbd v1.4PL0 Copyright (c) Steve Scherf et al.
# Submitted via: Kscd 1.3.0
#
DISCID=6b12a918
DTITLE=The Traveling Wilburys - Vol. 2 (1-12) VOL. 4 1/2 (13-24)
DYEAR=1900
DGENRE=
TTITLE0=Free Fallin'
TTITLE1=I Won't Back Down
TTITLE2=Love Is A Long Road
TTITLE3=A Face In The Crowd
TTITLE4=Runnin' Down A Dream
TTITLE5=Feel A Whole Lot Better
TTITLE6=Yer So Bad
TTITLE7=Depending On You
TTITLE8=The Apartment Song
TTITLE9=Alright For Now
TTITLE10=A Mind With A Heart Of Its Own
TTITLE11=Zombie Zoo
TTITLE12=Walk Away
TTITLE13=The Troubler
TTITLE14=Heartbreak Radio
TTITLE15=You Got It
TTITLE16=Under the Red Sky
TTITLE17=Nobody's Child
TTITLE18=Runaway
TTITLE19=I'm Gone
TTITLE20=Born In Time
TTITLE21=Borderline
TTITLE22=Cheer Down
TTITLE23=Silence
EXTD=
EXTT0=
EXTT1=
EXTT2=
EXTT3=
EXTT4=
EXTT5=
EXTT6=
EXTT7=
EXTT8=
EXTT9=
EXTT10=
EXTT11=
EXTT12=
EXTT13=
EXTT14=
EXTT15=
EXTT16=
EXTT17=
EXTT18=
EXTT19=
EXTT20=
EXTT21=
EXTT22=
EXTT23=
PLAYORDER=
